# xmcd
#
# Track frame offsets:
#	150
#	21956
#	43064
#	61501
#	80959
#	96613
#	116278
#	131886
#	150213
#
# Disc length: 2316 seconds
# Revision: 0
# Processed by: cddbd v1.5.2PL0 Copyright (c) Steve Scherf et al.
# Submitted via: dBpowerAMP V12.0
#
DISCID=71090a09
DTITLE=JoshRouse,Oshkosh,thenPaxton,NE - Country Mouse, City House
DYEAR=2007
DGENRE=Pop
TTITLE0=Sweetie
TTITLE1=Italian Dry Ice
TTITLE2=Hollywood Bass Player
TTITLE3=God, Please Let Me Go Back
TTITLE4=Nice To Fit In
TTITLE5=Pilgrim
TTITLE6=Domesticated Lovers
TTITLE7=London Bridges
TTITLE8=Snowy
EXTD=
EXTT0=
EXTT1=
EXTT2=
EXTT3=
EXTT4=
EXTT5=
EXTT6=
EXTT7=
EXTT8=
PLAYORDER=
